<svg width="17" height="22" viewBox="0 0 17 22" fill="none" xmlns="http://www.w3.org/2000/svg">
<path d="M8.55274 21.7394C8.41757 21.7394 8.28467 21.7047 8.16672 21.6387C5.85275 20.3481 3.92547 18.4629 2.58414 16.178C1.24281 13.8931 0.536116 11.2913 0.53711 8.6418C0.53711 8.53352 0.538165 8.42559 0.540274 8.31801C0.593009 5.91965 1.4858 3.89992 3.12426 2.47768C4.5734 1.2226 6.50084 0.53125 8.55274 0.53125C10.6046 0.53125 12.5315 1.2226 13.9791 2.47768C15.6191 3.9015 16.5135 5.91965 16.5631 8.31801C16.5631 8.42348 16.5668 8.53369 16.5668 8.6418C16.5682 11.3323 15.8392 13.9728 14.4574 16.2814C13.1162 18.5176 11.2137 20.3644 8.93875 21.6387C8.8208 21.7047 8.6879 21.7394 8.55274 21.7394ZM8.55274 2.11328C6.88158 2.11328 5.32223 2.66699 4.1626 3.67316C2.86902 4.7943 2.16344 6.41219 2.12231 8.35176C2.12231 8.44774 2.11914 8.54477 2.11914 8.6418C2.11836 10.934 2.71036 13.1875 3.83765 15.1834C4.96495 17.1792 6.58923 18.8497 8.55274 20.0324C10.4189 18.9041 11.9809 17.3367 13.1027 15.4667C14.3366 13.4041 14.9876 11.0453 14.9863 8.6418C14.9863 8.54477 14.9863 8.44774 14.9832 8.35176C14.9415 6.41219 14.2359 4.7943 12.9429 3.67316C11.7827 2.66699 10.2239 2.11328 8.55274 2.11328Z" fill="white"/>
<path d="M8.57327 13.6409C7.58953 13.6409 6.62787 13.3492 5.80992 12.8027C4.99196 12.2561 4.35445 11.4793 3.97798 10.5705C3.60152 9.66159 3.50302 8.66151 3.69494 7.69666C3.88686 6.73182 4.36058 5.84555 5.05619 5.14994C5.7518 4.45433 6.63807 3.98061 7.60291 3.78869C8.56776 3.59677 9.56784 3.69527 10.4767 4.07173C11.3856 4.4482 12.1624 5.08571 12.7089 5.90367C13.2555 6.72162 13.5472 7.68328 13.5472 8.66702C13.5458 9.98576 13.0213 11.2501 12.0888 12.1826C11.1563 13.1151 9.89201 13.6395 8.57327 13.6409ZM8.57327 5.27568C7.9024 5.27568 7.2466 5.47462 6.68879 5.84735C6.13099 6.22007 5.69625 6.74984 5.43954 7.36966C5.18283 7.98947 5.11569 8.67149 5.24661 9.32947C5.37753 9.98744 5.70063 10.5918 6.17504 11.0662C6.64946 11.5405 7.25388 11.8635 7.91187 11.9943C8.56987 12.1251 9.25188 12.0579 9.87165 11.8011C10.4914 11.5443 11.0211 11.1095 11.3938 10.5516C11.7664 9.99373 11.9653 9.3379 11.9651 8.66702C11.9636 7.76811 11.6057 6.90648 10.9699 6.27105C10.334 5.63562 9.47219 5.27823 8.57327 5.27726V5.27568Z" fill="white"/>
</svg>
