<svg width="22" height="18" viewBox="0 0 22 18" fill="none" xmlns="http://www.w3.org/2000/svg">
<path d="M13.1739 12.1556C13.1739 12.1556 14.861 11.4006 15.3027 11.2192C15.7431 11.0372 16.1993 10.9912 16.4764 11.1235C16.896 11.3241 20.4193 13.1561 20.716 13.3183C21.0127 13.4808 21.1556 13.9449 20.7477 14.3996C20.3414 14.8543 18.4672 16.6521 17.6731 16.6329C16.8777 16.6127 13.5706 16.556 7.33436 11.6801C1.09938 6.80574 1.02563 4.22006 1.00021 3.59831C0.974792 2.97688 3.27479 1.51159 3.85645 1.19371C4.43895 0.876159 5.03353 0.995689 5.2402 1.21911C5.4752 1.47348 7.79186 4.21875 8.04685 4.53337C8.22144 4.74833 8.15727 5.10692 7.92435 5.45151C7.69269 5.79674 6.72686 7.11547 6.72686 7.11547C6.72686 7.11547 7.40769 8.02318 9.71018 9.82264C12.0131 11.6224 13.1739 12.1556 13.1739 12.1556Z" stroke="white" stroke-width="2" stroke-miterlimit="10"/>
</svg>
