<svg width="20" height="13" viewBox="0 0 20 13" fill="none" xmlns="http://www.w3.org/2000/svg">
<path d="M19.7912 1.77164L18.9979 1.09839L11.6493 7.33483C10.7307 8.11438 9.18579 8.11438 8.26721 7.33483L0.918564 1.13383L0.125244 1.80707L5.59497 6.44897L0.125244 11.0909L0.918564 11.7641L6.38829 7.12222L7.47389 8.04351C8.14194 8.61046 9.01877 8.92937 9.93735 8.92937C10.8559 8.92937 11.7328 8.61046 12.4008 8.04351L13.4864 7.12222L18.9561 11.7641L19.7495 11.0909L14.2797 6.44897L19.7912 1.77164Z" fill="white"/>
<path d="M18.2463 12.969H1.75366C0.793321 12.969 0 12.2957 0 11.4807V1.48824C0 0.673251 0.793321 0 1.75366 0H18.2463C19.2067 0 20 0.673251 20 1.48824V11.4807C20 12.2957 19.2067 12.969 18.2463 12.969ZM1.7119 0.956725C1.37787 0.956725 1.12735 1.16933 1.12735 1.4528V11.4453C1.12735 11.7288 1.37787 11.9414 1.7119 11.9414H18.2046C18.5386 11.9414 18.7891 11.7288 18.7891 11.4453V1.4528C18.7891 1.16933 18.5386 0.956725 18.2046 0.956725H1.7119Z" fill="white"/>
</svg>
