<svg width="25" height="25" viewBox="0 0 25 25" fill="none" xmlns="http://www.w3.org/2000/svg">
<path d="M21.875 25H3.125C1.4 25 0 23.6 0 21.875V3.125C0 1.4 1.4 0 3.125 0H21.875C23.6 0 25 1.4 25 3.125V21.875C25 23.6 23.6 25 21.875 25Z" fill="white"/>
<path d="M9.6001 18.8499C15.4938 18.8499 18.7188 13.9624 18.7188 9.73115C18.7188 9.59365 18.7188 9.45615 18.7126 9.31865C19.3376 8.86865 19.8813 8.2999 20.3126 7.65615C19.7376 7.9124 19.1188 8.08115 18.4688 8.1624C19.1313 7.76865 19.6376 7.1374 19.8813 6.3874C19.2626 6.75615 18.5751 7.01865 17.8438 7.1624C17.2563 6.5374 16.4251 6.1499 15.5063 6.1499C13.7376 6.1499 12.3001 7.5874 12.3001 9.35615C12.3001 9.60615 12.3313 9.8499 12.3813 10.0874C9.71885 9.95615 7.35635 8.6749 5.7751 6.7374C5.5001 7.2124 5.34385 7.7624 5.34385 8.3499C5.34385 9.4624 5.9126 10.4437 6.76885 11.0187C6.24385 10.9999 5.7501 10.8562 5.31885 10.6187V10.6624C5.31885 12.2124 6.4251 13.5124 7.8876 13.8062C7.61885 13.8812 7.3376 13.9187 7.04385 13.9187C6.8376 13.9187 6.6376 13.8999 6.44385 13.8624C6.8501 15.1374 8.0376 16.0624 9.4376 16.0874C8.3376 16.9499 6.95635 17.4624 5.45635 17.4624C5.2001 17.4624 4.94385 17.4499 4.69385 17.4187C6.10635 18.3187 7.79385 18.8499 9.6001 18.8499Z" fill="#26ADE2"/>
</svg>
