<svg width="25" height="25" viewBox="0 0 25 25" fill="none" xmlns="http://www.w3.org/2000/svg">
<path d="M12.5 0C5.6076 0 0 5.6071 0 12.5C0 14.6281 0.552368 16.7338 1.5976 18.5984C1.61184 18.6401 1.63116 18.6808 1.6566 18.7195C2.04468 19.3115 0.829061 20.4865 0.215149 20.932C0.06663 21.0398 -0.0142416 21.2189 0.00254302 21.401C0.0188191 21.5841 0.130717 21.7448 0.296529 21.8241C0.380452 21.8638 2.27814 22.7478 4.31112 21.9269C6.5918 23.9115 9.48639 25 12.5 25C19.3924 25 25 19.3929 25 12.5C25 5.6071 19.3924 0 12.5 0Z" fill="#26ADE2"/>
<path d="M14.4845 22.7317C11.0467 23.3708 7.85493 22.3064 5.56389 20.2561C3.93215 21.0421 2.28388 20.5401 2.28388 20.5401L2.30556 20.5186C3.32326 19.4975 3.52417 17.9581 2.94726 16.637C2.12723 14.7591 1.84074 12.5968 2.30652 10.3284C3.15999 6.17206 6.58731 2.89282 10.7769 2.22156C17.8919 1.08167 23.9451 7.15505 22.7697 14.2754C22.0707 18.5104 18.7045 21.9472 14.4845 22.7317Z" fill="white"/>
<path opacity="0.2" d="M14.4845 22.7318C11.0467 23.3709 7.85498 22.3064 5.56393 20.2562C4.07674 20.8864 2.80019 20.7108 2.28393 20.5402C2.22887 20.6048 2.18049 20.6733 2.11958 20.7343L2.0979 20.7558C2.0979 20.7558 3.9322 21.3025 5.56393 20.5166C7.85498 22.5669 11.0467 23.6313 14.4845 22.9922C18.7045 22.2076 22.0707 18.7709 22.7697 14.5358C22.8559 14.0141 22.892 13.5007 22.9029 12.9927C22.8835 13.4157 22.8411 13.8434 22.7697 14.2754C22.0707 18.5104 18.7045 21.9472 14.4845 22.7318Z" fill="white"/>
<path opacity="0.2" d="M12.5 0.260417C19.3485 0.260417 24.9226 5.7977 24.9934 12.6302C24.9938 12.5863 25 12.5439 25 12.5C25 5.6071 19.3924 0 12.5 0C5.6076 0 0 5.6071 0 12.5C0 12.5383 0.00699365 12.5761 0.0073751 12.6144C0.0866572 5.78931 5.65688 0.260417 12.5 0.260417Z" fill="white"/>
<path opacity="0.1" d="M12.4999 24.7397C9.48629 24.7397 6.5917 23.6512 4.31102 21.6665C2.27804 22.4875 0.380351 21.6035 0.296428 21.5638C0.158018 21.4976 0.0714881 21.3687 0.032451 21.2233C0.0168744 21.2816 -0.00321638 21.3394 0.00244206 21.401C0.0187181 21.5841 0.130616 21.7449 0.296428 21.8242C0.380351 21.8639 2.27804 22.7479 4.31102 21.927C6.5917 23.9116 9.48629 25.0001 12.4999 25.0001C19.3923 25.0001 24.9999 19.393 24.9999 12.5001C24.9999 12.4561 24.9937 12.4137 24.9933 12.3699C24.9225 19.2024 19.3484 24.7397 12.4999 24.7397Z" fill="#010101"/>
<path opacity="0.1" d="M10.777 2.20535C17.3706 1.149 23.0412 6.29026 22.903 12.716C23.2043 6.16844 17.4603 0.874215 10.777 1.94494C6.58738 2.6162 3.16007 5.89544 2.30659 10.0518C2.13004 10.9118 2.06252 11.7562 2.09024 12.5759C2.08363 11.8377 2.14854 11.0818 2.30659 10.3122C3.16007 6.15585 6.58738 2.87661 10.777 2.20535Z" fill="#010101"/>
<path d="M5.72909 10.4167C5.4412 10.4167 5.20825 10.6497 5.20825 10.9376V15.1042C5.20825 15.3921 5.4412 15.6251 5.72909 15.6251C6.01697 15.6251 6.24992 15.3921 6.24992 15.1042V10.9376C6.24992 10.6497 6.01697 10.4167 5.72909 10.4167Z" fill="#26ADE2"/>
<path d="M17.7083 10.4167C16.5593 10.4167 15.625 11.3516 15.625 12.5001V13.5417C15.625 14.6902 16.5593 15.6251 17.7083 15.6251C18.8573 15.6251 19.7917 14.6902 19.7917 13.5417V12.5001C19.7917 11.3516 18.8573 10.4167 17.7083 10.4167ZM18.75 13.5417C18.75 14.1165 18.2826 14.5834 17.7083 14.5834C17.1341 14.5834 16.6667 14.1165 16.6667 13.5417V12.5001C16.6667 11.9253 17.1341 11.4584 17.7083 11.4584C18.2826 11.4584 18.75 11.9253 18.75 12.5001V13.5417Z" fill="#26ADE2"/>
<path d="M12.5001 10.4167C11.8749 10.4167 11.3197 10.6993 10.9376 11.1368C10.5555 10.6993 10.0003 10.4167 9.37508 10.4167C8.97683 10.4167 8.60451 10.5286 8.28764 10.724C8.20575 10.5429 8.02417 10.4167 7.81258 10.4167C7.5247 10.4167 7.29175 10.6497 7.29175 10.9376V15.1042C7.29175 15.3921 7.5247 15.6251 7.81258 15.6251C8.10046 15.6251 8.33341 15.3921 8.33341 15.1042V12.5001C8.33341 11.9253 8.80084 11.4584 9.37508 11.4584C9.94932 11.4584 10.4167 11.9253 10.4167 12.5001V15.1042C10.4167 15.3921 10.6497 15.6251 10.9376 15.6251C11.2255 15.6251 11.4584 15.3921 11.4584 15.1042V12.5001C11.4584 11.9253 11.9258 11.4584 12.5001 11.4584C13.0743 11.4584 13.5417 11.9253 13.5417 12.5001V15.1042C13.5417 15.3921 13.7747 15.6251 14.0626 15.6251C14.3505 15.6251 14.5834 15.3921 14.5834 15.1042V12.5001C14.5834 11.3516 13.6491 10.4167 12.5001 10.4167Z" fill="#26ADE2"/>
<path d="M5.72909 9.37492C6.01673 9.37492 6.24992 9.14173 6.24992 8.85409C6.24992 8.56644 6.01673 8.33325 5.72909 8.33325C5.44144 8.33325 5.20825 8.56644 5.20825 8.85409C5.20825 9.14173 5.44144 9.37492 5.72909 9.37492Z" fill="#26ADE2"/>
<path d="M12.5 0C5.6076 0 0 5.6071 0 12.5C0 14.6281 0.552368 16.7338 1.5976 18.5984C1.61184 18.6401 1.63116 18.6808 1.6566 18.7195C2.04468 19.3115 0.829061 20.4865 0.215149 20.932C0.06663 21.0398 -0.0142416 21.2189 0.00254302 21.401C0.0188191 21.5841 0.130717 21.7448 0.296529 21.8241C0.380452 21.8638 2.27814 22.7478 4.31112 21.9269C6.5918 23.9115 9.48639 25 12.5 25C19.3924 25 25 19.3929 25 12.5C25 5.6071 19.3924 0 12.5 0Z" fill="url(#paint0_linear_1_2719)"/>
<defs>
<linearGradient id="paint0_linear_1_2719" x1="0.93745" y1="7.71989" x2="23.594" y2="18.2848" gradientUnits="userSpaceOnUse">
<stop stop-color="white" stop-opacity="0.2"/>
<stop offset="1" stop-color="white" stop-opacity="0"/>
</linearGradient>
</defs>
</svg>
