<svg width="145" height="123" viewBox="0 0 145 123" fill="none" xmlns="http://www.w3.org/2000/svg">
<path fill-rule="evenodd" clip-rule="evenodd" d="M142.946 84.1168C141.964 80.7136 140.262 77.5955 137.895 74.7756C135.414 71.8285 132.154 69.548 128.112 67.8991C124.065 66.2632 118.87 65.4344 112.467 65.4344H103.779C104.815 53.3917 108.623 43.1427 115.213 34.6698C121.791 26.2233 130.912 18.7898 142.572 12.4132L135.499 0.0722656C120.147 7.43559 107.011 18.2065 96.0988 32.4332C85.1903 46.673 79.7575 60.7813 79.7575 74.7756C79.7575 89.8092 82.9081 101.602 89.26 110.114C95.612 118.627 104.71 122.867 116.537 122.867C124.042 122.867 130.561 120.048 136.107 114.412C141.645 108.785 144.422 102.194 144.422 94.6772C144.422 91.0503 143.935 87.52 142.946 84.1168ZM63.5136 84.1168C62.5244 80.7136 60.8263 77.5955 58.4546 74.7756C55.9816 71.8285 52.718 69.548 48.6716 67.8991C44.633 66.2632 39.4378 65.4344 33.0313 65.4344H24.3388C25.3787 53.3917 29.1836 43.1427 35.7692 34.6698C42.3509 26.2233 51.4796 18.7898 63.1319 12.4132L56.0634 0.0722656C40.7074 7.43559 27.579 18.2065 16.6628 32.4332C5.75427 46.673 0.325317 60.7813 0.325317 74.7756C0.325317 89.8092 3.46816 101.602 9.82398 110.114C16.1681 118.627 25.2658 122.867 37.1011 122.867C44.6019 122.867 51.129 120.048 56.6748 114.412C62.2127 108.785 64.9856 102.194 64.9856 94.6772C64.9856 91.0503 64.4911 87.52 63.5136 84.1168Z" fill="#4AB449" fill-opacity="0.12"/>
</svg>
