<svg width="27" height="31" viewBox="0 0 27 31" fill="none" xmlns="http://www.w3.org/2000/svg">
<path d="M16.2174 21.6683C16.2174 21.6683 18.3263 20.2966 18.8783 19.967C19.4289 19.6362 19.9992 19.5528 20.3455 19.793C20.87 20.1575 25.2741 23.4861 25.645 23.7808C26.0158 24.0761 26.1945 24.9193 25.6846 25.7454C25.1768 26.5714 22.8341 29.8379 21.8413 29.8029C20.8471 29.7663 16.7132 29.6633 8.91795 20.8043C1.12422 11.9483 1.03203 7.25042 1.00026 6.12078C0.968491 4.99174 3.84348 2.32948 4.57056 1.75194C5.29869 1.17499 6.04191 1.39216 6.30025 1.7981C6.59399 2.26025 9.48982 7.24805 9.80857 7.81968C10.0268 8.21023 9.94659 8.86174 9.65544 9.4878C9.36586 10.1151 8.15857 12.511 8.15857 12.511C8.15857 12.511 9.00961 14.1602 11.8877 17.4296C14.7664 20.6996 16.2174 21.6683 16.2174 21.6683Z" stroke="#4AB449" stroke-width="2" stroke-miterlimit="10"/>
</svg>
