<svg width="131" height="91" viewBox="0 0 131 91" fill="none" xmlns="http://www.w3.org/2000/svg">
<path d="M122.812 4.5625H119.181C117.032 4.5625 114.969 5.40991 113.434 6.9205L102.344 17.859V12.75C102.344 5.96666 96.8418 0.46875 90.0625 0.46875H12.2812C5.51019 0.46875 0 5.97484 0 12.75V41.2916V78.25C0 85.0293 5.49791 90.5312 12.2812 90.5312H90.0625C96.8418 90.5312 102.344 85.0293 102.344 78.25V73.2515L113.434 84.19C114.969 85.7006 117.032 86.548 119.181 86.548H122.812C127.332 86.548 131 82.8841 131 78.3605V12.75C131 8.22641 127.332 4.5625 122.812 4.5625ZM12.2812 82.3438C10.0215 82.3438 8.1875 80.5057 8.1875 78.25V12.75C8.1875 10.4862 10.0174 8.65625 12.2812 8.65625H90.0625C92.3182 8.65625 94.1562 10.4902 94.1562 12.75V78.25C94.1562 80.5057 92.3182 82.3438 90.0625 82.3438H12.2812ZM122.812 78.3605H119.181H118.719L102.344 61.9855V61.875L98.25 57.7812V33.2188L118.719 12.75H119.181H122.812V78.3605Z" fill="white"/>
</svg>
