<svg width="18" height="19" viewBox="0 0 18 19" fill="none" xmlns="http://www.w3.org/2000/svg">
<path d="M8.93757 0.589844C8.93513 0.589844 8.93265 0.589844 8.92993 0.589844C8.92889 0.589844 8.92774 0.589844 8.92641 0.589844C8.92289 0.589844 8.91941 0.590562 8.91589 0.590562C3.98943 0.601725 0 4.59844 0 9.52734C0 14.4549 3.98943 18.4523 8.91589 18.4641C8.91941 18.4641 8.92289 18.4648 8.92641 18.4648C8.92774 18.4648 8.92885 18.4648 8.92993 18.4648C8.93265 18.4648 8.93513 18.4648 8.93757 18.4648C13.8727 18.4648 17.875 14.4625 17.875 9.52734C17.875 4.59147 13.8727 0.589844 8.93757 0.589844ZM9.29489 5.93838C10.2424 5.91254 11.1648 5.78756 12.0522 5.57112C12.3204 6.62477 12.4859 7.83902 12.5124 9.16984H9.29486V5.93838H9.29489ZM9.29489 5.22338V1.36141C10.2592 1.62814 11.2353 2.91291 11.8575 4.88336C11.0321 5.08232 10.1754 5.19826 9.29489 5.22338ZM8.58007 1.35301V5.22338C7.69264 5.19826 6.82886 5.08024 5.99692 4.87776C6.62427 2.89543 7.60987 1.60578 8.58007 1.35301ZM8.58007 5.93766V9.16981H5.34057C5.36674 7.83686 5.53328 6.62122 5.80105 5.56688C6.69584 5.78544 7.62487 5.91254 8.58007 5.93766ZM4.62101 9.16984H0.724081C0.802975 7.33209 1.48761 5.64793 2.58383 4.31427C3.37985 4.75278 4.22439 5.11168 5.10909 5.37981C4.82036 6.52 4.64718 7.80546 4.62101 9.16984ZM4.62101 9.88484C4.64718 11.2485 4.82036 12.534 5.10913 13.6742C4.22475 13.943 3.37988 14.3019 2.58387 14.7404C1.48765 13.4068 0.803011 11.7226 0.724117 9.88484H4.62101ZM5.34057 9.88484H8.58007V13.1128C7.62491 13.1379 6.69552 13.2658 5.80072 13.485C5.53292 12.4313 5.36674 11.2164 5.34057 9.88484ZM8.58007 13.8271V17.7017C7.60919 17.4482 6.6229 16.1571 5.99588 14.1727C6.82814 13.9703 7.69224 13.8523 8.58007 13.8271ZM9.29489 17.6933V13.8271C10.1754 13.8523 11.0321 13.9689 11.8582 14.1678C11.236 16.1397 10.2592 17.4265 9.29489 17.6933ZM9.29489 13.1128V9.88484H12.5124C12.4859 11.2143 12.3204 12.4271 12.0537 13.4801C11.1648 13.2636 10.2431 13.1379 9.29489 13.1128ZM13.2316 9.88484H17.1509C17.072 11.7226 16.3877 13.4061 15.2915 14.7397C14.4891 14.2984 13.6373 13.9368 12.7449 13.6672C13.0333 12.5284 13.2057 11.2457 13.2316 9.88484ZM13.2316 9.16984C13.2057 7.80689 13.0326 6.52352 12.7443 5.38397C13.6359 5.11444 14.4878 4.75346 15.2894 4.31219C16.387 5.64581 17.072 7.33069 17.1509 9.16984H13.2316ZM14.7971 3.76614C14.0856 4.14456 13.335 4.45738 12.5508 4.69481C12.1326 3.34999 11.546 2.25236 10.852 1.53176C12.3742 1.89698 13.7336 2.68456 14.7971 3.76614ZM6.99472 1.53876C6.30449 2.25796 5.72043 3.35071 5.30392 4.68853C4.52744 4.45181 3.78311 4.1418 3.07827 3.76614C4.13465 2.69156 5.48371 1.90603 6.99472 1.53876ZM3.07579 15.2857C3.78135 14.9094 4.52604 14.5994 5.3032 14.3627C5.71971 15.7019 6.30377 16.796 6.99469 17.5159C5.48267 17.148 4.13293 16.3617 3.07579 15.2857ZM10.852 17.5222C11.5468 16.8016 12.1333 15.7033 12.5516 14.3564C13.3364 14.5945 14.0877 14.9066 14.7992 15.2864C13.7358 16.3687 12.3756 17.1577 10.852 17.5222Z" fill="white"/>
</svg>
